<svg xmlns="http://www.w3.org/2000/svg" width="32px" height="32px"  viewBox="0 0 24 24"><path d="M21.05,5.05c-0.47-0.25-1.04-0.22-1.48,0.08l-3.32,2.24V6.56c0-1.38-1.12-2.5-2.5-2.5H4.69
                c-1.38,0-2.5,1.12-2.5,2.5v10.88c0,1.38,1.12,2.5,2.5,2.5h9.06c1.38,0,2.5-1.12,2.5-2.5v-0.81l3.32,2.24
                c0.25,0.16,0.53,0.24,0.81,0.24c0.23,0,0.46-0.05,0.67-0.16c0.47-0.25,0.76-0.74,0.76-1.27V6.32C21.81,5.79,21.52,5.3,21.05,5.05z
                M15.25,17.44c0,0.83-0.67,1.5-1.5,1.5H4.69c-0.83,0-1.5-0.67-1.5-1.5V6.56c0-0.83,0.67-1.5,1.5-1.5h9.06c0.83,0,1.5,0.67,1.5,1.5
                V17.44z M20.81,17.68c0,0.23-0.16,0.35-0.23,0.38c-0.07,0.04-0.25,0.11-0.45-0.02l-3.88-2.62V8.58l3.88-2.62
                c0.2-0.13,0.38-0.06,0.45-0.02c0.07,0.03,0.23,0.15,0.23,0.38V17.68z"/></svg>